<svg width="960" height="540" viewBox="0 0 960 540" fill="none" xmlns="http://www.w3.org/2000/svg">
<rect width="960" height="540" fill="#121B44"/>
<path d="M317.264 90.9084C317.264 90.4229 317.541 90.2148 318.027 90.2148H330.093C330.579 90.2148 330.787 90.4229 330.787 90.9084V177.458C330.787 177.944 330.995 178.152 331.48 178.152H381.203C381.688 178.152 381.896 178.36 381.896 178.845V189.526C381.896 190.011 381.688 190.219 381.203 190.219H318.027C317.541 190.219 317.264 190.011 317.264 189.526V90.9084Z" fill="white"/>
<path d="M389.736 90.9084C389.736 90.4229 389.944 90.2148 390.429 90.2148H405.339C405.824 90.2148 406.102 90.4229 406.102 90.9084V105.819C406.102 106.304 405.824 106.582 405.339 106.582H390.429C389.944 106.582 389.736 106.304 389.736 105.819V90.9084ZM391.192 189.526V119.065C391.192 118.579 391.4 118.371 391.885 118.371H403.952C404.437 118.371 404.645 118.579 404.645 119.065V189.526C404.645 190.011 404.437 190.219 403.952 190.219H391.885C391.4 190.219 391.192 190.011 391.192 189.526Z" fill="white"/>
<path d="M449.309 116.915C456.244 116.915 465.952 120.868 469.628 125.029C469.975 125.515 470.668 125.653 471.015 124.89L472.471 119.065C472.61 118.579 472.818 118.371 473.165 118.371H483.844C484.33 118.371 484.538 118.579 484.538 119.065V217.613C484.538 218.098 484.33 218.376 483.844 218.376H471.778C471.292 218.376 471.015 218.098 471.015 217.613V183.839C471.015 183.215 470.391 182.799 469.628 183.561C467.062 186.613 457.977 191.606 449.309 191.606C428.782 191.606 415.536 176.557 415.536 154.295C415.536 132.034 428.782 116.915 449.309 116.915ZM428.99 154.295C428.99 169.344 437.311 179.539 450.696 179.539C463.386 179.539 471.015 169.344 471.015 154.295C471.015 139.246 463.386 128.982 450.696 128.982C437.311 128.982 428.99 139.246 428.99 154.295Z" fill="white"/>
<path d="M498.826 119.065C498.826 118.579 499.104 118.371 499.589 118.371H511.656C512.141 118.371 512.349 118.579 512.349 119.065V158.11C512.349 163.866 513.667 168.72 516.51 172.812C519.284 176.973 524.485 179.539 531.212 179.539C535.026 179.539 538.424 178.499 541.337 176.418C547.162 172.326 550.005 165.669 550.005 158.11V119.065C550.005 118.579 550.213 118.371 550.699 118.371H562.765C563.251 118.371 563.459 118.579 563.459 119.065V189.526C563.459 190.011 563.251 190.219 562.765 190.219H552.086C551.739 190.219 551.531 190.011 551.392 189.526L550.005 183.145C549.659 182.382 548.757 182.521 548.41 183.007C545.359 187.376 538.147 191.606 529.825 191.606C518.452 191.606 510.13 188 505.484 181.689C500.837 175.378 498.826 167.819 498.826 158.11V119.065Z" fill="white"/>
<path d="M576.777 90.9084C576.777 90.4229 576.985 90.2148 577.47 90.2148H592.38C592.866 90.2148 593.143 90.4229 593.143 90.9084V105.819C593.143 106.304 592.866 106.582 592.38 106.582H577.47C576.985 106.582 576.777 106.304 576.777 105.819V90.9084ZM578.233 189.526V119.065C578.233 118.579 578.441 118.371 578.926 118.371H590.993C591.479 118.371 591.687 118.579 591.687 119.065V189.526C591.687 190.011 591.479 190.219 590.993 190.219H578.926C578.441 190.219 578.233 190.011 578.233 189.526Z" fill="white"/>
<path d="M601.259 119.065C601.259 118.579 601.467 118.371 601.953 118.371H614.574C615.06 118.371 615.268 118.094 615.268 117.609V98.4676C615.268 97.9822 615.545 97.7741 616.031 97.7741H628.097C628.583 97.7741 628.791 97.9822 628.791 98.4676V117.609C628.791 118.094 628.999 118.371 629.484 118.371H644.81C645.296 118.371 645.573 118.579 645.573 119.065V128.289C645.573 128.774 645.296 128.982 644.81 128.982H629.484C628.999 128.982 628.791 129.259 628.791 129.745V171.078C628.791 175.794 631.357 178.152 636.488 178.152H644.81C645.296 178.152 645.573 178.36 645.573 178.845V189.526C645.573 190.011 645.296 190.219 644.81 190.219H633.09C627.473 190.219 623.104 188.901 620.053 186.197C616.794 183.423 615.198 179.192 615.268 173.436V129.745C615.268 129.259 615.06 128.982 614.574 128.982H601.953C601.467 128.982 601.259 128.774 601.259 128.289V119.065Z" fill="white"/>
<path d="M651.193 119.065C651.054 118.579 651.609 118.371 652.025 118.371H664.924C665.271 118.371 665.548 118.579 665.687 119.065L684.272 176.141C684.411 176.488 684.619 176.626 684.966 176.626C685.313 176.626 685.521 176.488 685.659 176.141L704.453 119.065C704.591 118.579 704.799 118.371 705.146 118.371H718.045C718.53 118.371 718.877 118.718 718.808 119.065L694.467 190.219L690.375 202.564C688.919 206.586 687.462 209.707 685.937 211.857C682.816 216.226 678.17 218.376 670.472 218.376H652.025C651.54 218.376 651.332 218.098 651.332 217.613V207.002C651.332 206.517 651.54 206.239 652.025 206.239H668.045C672.136 206.239 674.841 205.06 676.297 202.702C677.06 201.523 677.407 200.067 677.407 198.402C677.407 196.946 677.06 195.212 676.436 193.34L675.188 189.526L651.193 119.065Z" fill="white"/>
<ellipse cx="175.958" cy="142.76" rx="65.759" ry="65.7601" fill="#95CBF3"/>
<ellipse cx="175.958" cy="142.76" rx="65.7593" ry="65.7602" fill="#95CBF3"/>
<mask id="mask0_400_569" style="mask-type:alpha" maskUnits="userSpaceOnUse" x="110" y="77" width="132" height="132">
<ellipse cx="175.958" cy="142.76" rx="65.7593" ry="65.7602" fill="#121B44"/>
</mask>
<g mask="url(#mask0_400_569)">
<ellipse cx="234.415" cy="201.216" rx="80.3733" ry="80.3745" fill="#405AE5"/>
<rect x="110.199" y="77" width="43.84" height="131.522" fill="#405AE5"/>
<rect x="110.199" y="77" width="43.84" height="65.7609" fill="#405AE5"/>
</g>
<rect x="736.688" y="77" width="112.368" height="77.1941" rx="38.5971" fill="#63D77D"/>
<path d="M763.841 98.5706C763.791 98.3985 763.988 98.3247 764.136 98.3247H768.833C768.956 98.3247 769.03 98.3985 769.079 98.5706L778.941 128.797C778.99 128.919 779.089 128.969 779.212 128.969C779.335 128.969 779.408 128.919 779.458 128.797L789.172 98.5706C789.221 98.3985 789.295 98.3247 789.418 98.3247H794.165C794.337 98.3247 794.435 98.4476 794.411 98.5706L782.679 133.543C782.63 133.715 782.557 133.789 782.434 133.789H776.015C775.867 133.789 775.769 133.715 775.719 133.543L763.841 98.5706ZM797.879 130.002C797.879 129.706 797.952 129.485 798.075 129.362L812.069 115.713C814.947 112.958 816.373 110.548 816.349 108.507C816.324 107.129 815.783 105.654 814.775 104.35C813.766 103.047 811.922 102.112 809.659 102.112C805.945 102.112 803.265 104.867 803.265 108.039C803.265 108.211 803.191 108.31 803.019 108.31H798.715C798.543 108.31 798.469 108.211 798.469 108.039C798.469 102.038 803.166 97.8328 809.659 97.8328C813.2 97.8328 816.226 99.0379 818.144 100.981C820.062 102.924 821.144 105.58 821.144 108.507C821.144 110.351 820.505 112.319 819.865 113.573C819.546 114.212 819.078 114.901 818.513 115.639C817.332 117.139 816.988 117.483 815.881 118.565L815.783 118.688L815.684 118.787L815.562 118.885L804.47 129.116C804.347 129.215 804.396 129.51 804.666 129.51H820.898C821.071 129.51 821.144 129.584 821.144 129.756V133.543C821.144 133.715 821.071 133.789 820.898 133.789H798.124C797.952 133.789 797.879 133.715 797.879 133.543V130.002Z" fill="#121B44"/>
<rect x="383" y="416" width="62" height="62" rx="31" fill="#63D77D"/>
<path fill-rule="evenodd" clip-rule="evenodd" d="M405.559 426.334H398.671V467.665H412.448V466.011C414.516 467.07 416.86 467.667 419.343 467.667C427.713 467.667 434.498 460.882 434.498 452.513C434.498 444.143 427.713 437.358 419.343 437.358C416.86 437.358 414.516 437.955 412.448 439.014V428.129V426.334H405.559ZM412.448 439.014C407.545 441.524 404.189 446.626 404.189 452.513C404.189 458.399 407.545 463.502 412.448 466.011V439.014Z" fill="#1C1D4F"/>
<path d="M472.803 429.692C472.803 429.538 472.891 429.471 473.045 429.471H488.072C492.905 429.471 496.391 433.488 496.391 438.519C496.391 441.321 494.759 443.638 492.839 444.432C492.728 444.477 492.684 444.543 492.684 444.653C492.684 444.763 492.728 444.852 492.839 444.896C495.023 445.778 497.12 449.177 497.12 452.244C497.12 457.606 493.258 461.291 487.852 461.291H473.045C472.891 461.291 472.803 461.225 472.803 461.07V429.692ZM477.105 457.231C477.105 457.385 477.172 457.451 477.326 457.451H487.234C490.478 457.451 492.839 455.046 492.839 452.244C492.839 449.508 490.367 446.838 487.543 446.838H477.326C477.172 446.838 477.105 446.904 477.105 447.058V457.231ZM477.105 442.755C477.105 442.91 477.172 442.998 477.326 442.998H487.234C489.727 442.91 492.111 441.012 492.111 438.519C492.111 435.628 490.301 433.267 487.234 433.267H477.326C477.172 433.267 477.105 433.333 477.105 433.488V442.755ZM506.321 459.614C501.974 456.812 499.922 451.847 499.922 445.381C499.922 442.137 500.452 439.313 501.489 436.886C503.585 432.031 508.02 429.03 514.199 429.03C517.288 429.03 519.914 429.736 522.077 431.126C526.402 433.951 528.432 438.916 528.432 445.381C528.432 451.847 526.402 456.812 522.077 459.614C517.399 462.681 511.021 462.659 506.321 459.614ZM504.424 445.381C504.424 453.259 507.932 457.893 514.199 457.893C520.466 457.893 523.952 453.259 523.952 445.381C523.952 437.504 520.466 432.87 514.199 432.87C507.932 432.87 504.424 437.504 504.424 445.381ZM533.485 429.692C533.485 429.538 533.573 429.471 533.728 429.471H537.567C537.722 429.471 537.788 429.538 537.788 429.692V457.231C537.788 457.385 537.854 457.451 538.008 457.451H553.83C553.984 457.451 554.051 457.518 554.051 457.672V461.07C554.051 461.225 553.984 461.291 553.83 461.291H533.728C533.573 461.291 533.485 461.225 533.485 461.07V429.692ZM557.493 429.692C557.493 429.538 557.559 429.471 557.714 429.471H569.387C574.043 429.494 577.728 431.148 580.045 434.039C582.34 436.93 583.531 440.902 583.531 445.69C583.531 455.488 578.677 461.291 569.387 461.291H557.714C557.559 461.291 557.493 461.225 557.493 461.07V429.692ZM561.796 457.231C561.796 457.385 561.862 457.451 562.017 457.451H569.387C575.477 457.451 579.008 453.303 579.008 445.69C579.008 438.099 575.389 433.311 569.387 433.311H562.017C561.862 433.311 561.796 433.399 561.796 433.554V457.231Z" fill="white"/>
</svg>
