<svg width="960" height="540" viewBox="0 0 960 540" fill="none" xmlns="http://www.w3.org/2000/svg">
<rect width="960" height="540" rx="24" fill="#121B44"/>
<rect x="829" y="25" width="106" height="106" rx="53" fill="#63D77D"/>
<path d="M852.026 61.0203C851.975 60.843 852.178 60.7671 852.33 60.7671H857.167C857.294 60.7671 857.37 60.843 857.421 61.0203L867.576 92.1459C867.627 92.2726 867.728 92.3232 867.855 92.3232C867.981 92.3232 868.057 92.2726 868.108 92.1459L878.112 61.0203C878.162 60.843 878.238 60.7671 878.365 60.7671H883.253C883.43 60.7671 883.532 60.8937 883.506 61.0203L871.426 97.0338C871.375 97.2111 871.299 97.2871 871.173 97.2871H864.562C864.41 97.2871 864.309 97.2111 864.259 97.0338L852.026 61.0203ZM887.077 93.3869C887.077 93.083 887.153 92.8551 887.28 92.7284L901.69 78.6725C904.653 75.836 906.122 73.3541 906.097 71.252C906.072 69.8338 905.515 68.3142 904.476 66.9719C903.438 65.6297 901.538 64.6673 899.208 64.6673C895.384 64.6673 892.624 67.5038 892.624 70.7708C892.624 70.9481 892.548 71.0494 892.37 71.0494H887.938C887.761 71.0494 887.685 70.9481 887.685 70.7708C887.685 64.5913 892.522 60.2606 899.208 60.2606C902.855 60.2606 905.97 61.5015 907.946 63.5023C909.921 65.503 911.036 68.2382 911.036 71.252C911.036 73.1515 910.377 75.1775 909.719 76.4692C909.389 77.1276 908.908 77.8368 908.326 78.5965C907.11 80.1414 906.755 80.496 905.616 81.6103L905.515 81.737L905.413 81.8383L905.287 81.9396L893.865 92.4752C893.738 92.5765 893.789 92.8804 894.067 92.8804H910.782C910.96 92.8804 911.036 92.9564 911.036 93.1337V97.0338C911.036 97.2111 910.96 97.2871 910.782 97.2871H887.33C887.153 97.2871 887.077 97.2111 887.077 97.0338V93.3869Z" fill="#121B44"/>
<path d="M190.503 36.1178C190.503 35.7298 190.725 35.5635 191.113 35.5635H200.757C201.145 35.5635 201.312 35.7298 201.312 36.1178V105.295C201.312 105.683 201.478 105.85 201.866 105.85H241.608C241.996 105.85 242.163 106.016 242.163 106.404V114.94C242.163 115.328 241.996 115.495 241.608 115.495H191.113C190.725 115.495 190.503 115.328 190.503 114.94V36.1178Z" fill="white"/>
<path d="M248.428 36.1178C248.428 35.7298 248.595 35.5635 248.983 35.5635H260.9C261.288 35.5635 261.509 35.7298 261.509 36.1178V48.0354C261.509 48.4234 261.288 48.6451 260.9 48.6451H248.983C248.595 48.6451 248.428 48.4234 248.428 48.0354V36.1178ZM249.592 114.94V58.6227C249.592 58.2347 249.759 58.0684 250.147 58.0684H259.791C260.179 58.0684 260.345 58.2347 260.345 58.6227V114.94C260.345 115.328 260.179 115.495 259.791 115.495H250.147C249.759 115.495 249.592 115.328 249.592 114.94Z" fill="white"/>
<path d="M296.044 56.9043C301.587 56.9043 309.347 60.0639 312.284 63.3897C312.562 63.7777 313.116 63.8886 313.393 63.2789L314.557 58.6227C314.668 58.2347 314.834 58.0684 315.111 58.0684H323.647C324.035 58.0684 324.202 58.2347 324.202 58.6227V137.39C324.202 137.778 324.035 138 323.647 138H314.003C313.615 138 313.393 137.778 313.393 137.39V110.395C313.393 109.896 312.894 109.564 312.284 110.173C310.234 112.612 302.972 116.603 296.044 116.603C279.637 116.603 269.05 104.575 269.05 86.7815C269.05 68.9882 279.637 56.9043 296.044 56.9043ZM279.803 86.7815C279.803 98.81 286.455 106.958 297.152 106.958C307.296 106.958 313.393 98.81 313.393 86.7815C313.393 74.753 307.296 66.5493 297.152 66.5493C286.455 66.5493 279.803 74.753 279.803 86.7815Z" fill="white"/>
<path d="M335.622 58.6227C335.622 58.2347 335.844 58.0684 336.232 58.0684H345.876C346.264 58.0684 346.431 58.2347 346.431 58.6227V89.8302C346.431 94.431 347.484 98.3111 349.757 101.582C351.974 104.907 356.131 106.958 361.507 106.958C364.556 106.958 367.272 106.127 369.6 104.464C374.256 101.194 376.529 95.8722 376.529 89.8302V58.6227C376.529 58.2347 376.695 58.0684 377.083 58.0684H386.727C387.115 58.0684 387.282 58.2347 387.282 58.6227V114.94C387.282 115.328 387.115 115.495 386.727 115.495H378.191C377.914 115.495 377.748 115.328 377.637 114.94L376.529 109.841C376.251 109.231 375.531 109.342 375.254 109.73C372.815 113.222 367.05 116.603 360.399 116.603C351.309 116.603 344.657 113.721 340.943 108.677C337.23 103.632 335.622 97.5905 335.622 89.8302V58.6227Z" fill="white"/>
<path d="M397.926 36.1178C397.926 35.7298 398.093 35.5635 398.481 35.5635H410.398C410.786 35.5635 411.008 35.7298 411.008 36.1178V48.0354C411.008 48.4234 410.786 48.6451 410.398 48.6451H398.481C398.093 48.6451 397.926 48.4234 397.926 48.0354V36.1178ZM399.09 114.94V58.6227C399.09 58.2347 399.257 58.0684 399.645 58.0684H409.289C409.677 58.0684 409.844 58.2347 409.844 58.6227V114.94C409.844 115.328 409.677 115.495 409.289 115.495H399.645C399.257 115.495 399.09 115.328 399.09 114.94Z" fill="white"/>
<path d="M417.495 58.6227C417.495 58.2347 417.661 58.0684 418.049 58.0684H428.137C428.525 58.0684 428.692 57.8466 428.692 57.4586V42.1597C428.692 41.7717 428.913 41.6054 429.301 41.6054H438.946C439.334 41.6054 439.5 41.7717 439.5 42.1597V57.4586C439.5 57.8466 439.666 58.0684 440.054 58.0684H452.304C452.692 58.0684 452.914 58.2347 452.914 58.6227V65.995C452.914 66.383 452.692 66.5493 452.304 66.5493H440.054C439.666 66.5493 439.5 66.771 439.5 67.159V100.196C439.5 103.965 441.551 105.85 445.653 105.85H452.304C452.692 105.85 452.914 106.016 452.914 106.404V114.94C452.914 115.328 452.692 115.495 452.304 115.495H442.937C438.447 115.495 434.955 114.441 432.516 112.28C429.911 110.062 428.636 106.681 428.692 102.08V67.159C428.692 66.771 428.525 66.5493 428.137 66.5493H418.049C417.661 66.5493 417.495 66.383 417.495 65.995V58.6227Z" fill="white"/>
<path d="M457.406 58.6227C457.295 58.2347 457.738 58.0684 458.071 58.0684H468.381C468.658 58.0684 468.88 58.2347 468.99 58.6227L483.845 104.242C483.956 104.519 484.123 104.63 484.4 104.63C484.677 104.63 484.843 104.519 484.954 104.242L499.975 58.6227C500.086 58.2347 500.252 58.0684 500.529 58.0684H510.839C511.227 58.0684 511.504 58.3455 511.449 58.6227L491.993 115.495L488.723 125.361C487.559 128.576 486.395 131.071 485.176 132.789C482.681 136.281 478.968 138 472.815 138H458.071C457.683 138 457.517 137.778 457.517 137.39V128.909C457.517 128.521 457.683 128.299 458.071 128.299H470.875C474.145 128.299 476.307 127.357 477.471 125.472C478.081 124.53 478.358 123.366 478.358 122.035C478.358 120.871 478.081 119.486 477.582 117.989L476.584 114.94L457.406 58.6227Z" fill="white"/>
<ellipse cx="77.5601" cy="77.5608" rx="52.5601" ry="52.5608" fill="#95CBF3"/>
<ellipse cx="77.5603" cy="77.561" rx="52.5603" ry="52.561" fill="#95CBF3"/>
<mask id="mask0_413_271" style="mask-type:alpha" maskUnits="userSpaceOnUse" x="25" y="25" width="106" height="106">
<ellipse cx="77.5603" cy="77.561" rx="52.5603" ry="52.561" fill="#121B44"/>
</mask>
<g mask="url(#mask0_413_271)">
<ellipse cx="124.284" cy="124.285" rx="64.241" ry="64.2419" fill="#405AE5"/>
<rect x="25" y="25" width="35.0406" height="105.123" fill="#405AE5"/>
<rect x="25" y="25" width="35.0406" height="52.5615" fill="#405AE5"/>
</g>
<rect x="25" y="428" width="62" height="62" rx="31" fill="#63D77D"/>
<path fill-rule="evenodd" clip-rule="evenodd" d="M47.5594 438.334H40.6709V479.665H54.4479V478.011C56.5163 479.07 58.8601 479.667 61.3433 479.667C69.713 479.667 76.498 472.882 76.498 464.513C76.498 456.143 69.713 449.358 61.3433 449.358C58.8601 449.358 56.5163 449.955 54.4479 451.014V440.129V438.334H47.5594ZM54.4479 451.014C49.5447 453.524 46.1886 458.626 46.1886 464.513C46.1886 470.399 49.5447 475.502 54.4479 478.011V451.014Z" fill="#1C1D4F"/>
<path d="M114.803 441.692C114.803 441.538 114.891 441.471 115.045 441.471H130.072C134.905 441.471 138.391 445.488 138.391 450.519C138.391 453.321 136.759 455.638 134.839 456.432C134.728 456.477 134.684 456.543 134.684 456.653C134.684 456.763 134.728 456.852 134.839 456.896C137.023 457.778 139.12 461.177 139.12 464.244C139.12 469.606 135.258 473.291 129.852 473.291H115.045C114.891 473.291 114.803 473.225 114.803 473.07V441.692ZM119.105 469.231C119.105 469.385 119.172 469.451 119.326 469.451H129.234C132.478 469.451 134.839 467.046 134.839 464.244C134.839 461.508 132.367 458.838 129.543 458.838H119.326C119.172 458.838 119.105 458.904 119.105 459.058V469.231ZM119.105 454.755C119.105 454.91 119.172 454.998 119.326 454.998H129.234C131.727 454.91 134.111 453.012 134.111 450.519C134.111 447.628 132.301 445.267 129.234 445.267H119.326C119.172 445.267 119.105 445.333 119.105 445.488V454.755ZM148.321 471.614C143.974 468.812 141.922 463.847 141.922 457.381C141.922 454.137 142.452 451.313 143.489 448.886C145.585 444.031 150.02 441.03 156.199 441.03C159.288 441.03 161.914 441.736 164.077 443.126C168.402 445.951 170.432 450.916 170.432 457.381C170.432 463.847 168.402 468.812 164.077 471.614C159.399 474.681 153.021 474.659 148.321 471.614ZM146.424 457.381C146.424 465.259 149.932 469.893 156.199 469.893C162.466 469.893 165.952 465.259 165.952 457.381C165.952 449.504 162.466 444.87 156.199 444.87C149.932 444.87 146.424 449.504 146.424 457.381ZM175.485 441.692C175.485 441.538 175.573 441.471 175.728 441.471H179.567C179.722 441.471 179.788 441.538 179.788 441.692V469.231C179.788 469.385 179.854 469.451 180.008 469.451H195.83C195.984 469.451 196.051 469.518 196.051 469.672V473.07C196.051 473.225 195.984 473.291 195.83 473.291H175.728C175.573 473.291 175.485 473.225 175.485 473.07V441.692ZM199.493 441.692C199.493 441.538 199.559 441.471 199.714 441.471H211.387C216.043 441.494 219.728 443.148 222.045 446.039C224.34 448.93 225.531 452.902 225.531 457.69C225.531 467.488 220.677 473.291 211.387 473.291H199.714C199.559 473.291 199.493 473.225 199.493 473.07V441.692ZM203.796 469.231C203.796 469.385 203.862 469.451 204.017 469.451H211.387C217.477 469.451 221.008 465.303 221.008 457.69C221.008 450.099 217.389 445.311 211.387 445.311H204.017C203.862 445.311 203.796 445.399 203.796 445.554V469.231ZM239.72 465.788C239.72 465.634 239.786 465.568 239.94 465.568H243.736C243.912 465.568 244.001 465.634 244.001 465.788C244.001 468.105 246.406 469.893 249.936 469.893C251.26 469.893 252.364 469.738 253.599 469.297C254.813 468.856 255.585 467.863 255.585 466.473C255.585 465.965 255.387 465.524 255.188 465.193C254.99 464.862 254.504 464.553 254.173 464.354C253.82 464.178 253.114 463.979 252.761 463.891C250.907 463.449 250.201 463.538 249.936 463.494L247.995 463.251C247.531 463.185 246.891 463.074 246.119 462.898C244.53 462.567 243.802 462.258 242.655 461.552C242.059 461.221 241.617 460.824 241.286 460.404C240.647 459.544 240.117 458.264 240.117 456.697C240.117 452.902 243.824 449.967 249.297 449.967C251.194 449.967 252.871 450.254 254.35 450.828C257.285 451.975 259.248 454.491 259.248 457.933C259.248 458.087 259.182 458.154 259.05 458.154H255.166C255.012 458.154 254.946 458.087 254.946 457.933C254.946 455.395 252.893 453.806 249.297 453.806C246.119 453.806 244.42 455.13 244.42 456.697C244.42 457.955 245.104 458.396 245.854 458.838C246.273 459.102 247.399 459.301 247.84 459.367C248.259 459.455 249.672 459.632 249.936 459.654C252.43 459.985 254.129 460.272 255.034 460.537C257.483 461.243 259.006 462.523 259.579 464.376C259.778 465.016 259.866 465.7 259.866 466.473C259.866 468.128 259.425 469.518 258.542 470.621C256.755 472.85 253.842 473.732 249.936 473.732C243.383 473.732 239.72 470.378 239.72 465.788ZM261.985 450.651C261.985 450.497 262.051 450.43 262.205 450.43H266.221C266.376 450.43 266.442 450.342 266.442 450.188V444.097C266.442 443.943 266.53 443.877 266.685 443.877H270.524C270.679 443.877 270.745 443.943 270.745 444.097V450.188C270.745 450.342 270.811 450.43 270.966 450.43H275.842C275.997 450.43 276.085 450.497 276.085 450.651V453.586C276.085 453.74 275.997 453.806 275.842 453.806H270.966C270.811 453.806 270.745 453.895 270.745 454.049V467.201C270.745 468.701 271.561 469.451 273.194 469.451H275.842C275.997 469.451 276.085 469.518 276.085 469.672V473.07C276.085 473.225 275.997 473.291 275.842 473.291H272.113C270.326 473.291 268.936 472.872 267.965 472.011C266.928 471.129 266.42 469.782 266.442 467.951V454.049C266.442 453.895 266.376 453.806 266.221 453.806H262.205C262.051 453.806 261.985 453.74 261.985 453.586V450.651ZM279.13 466.517C279.13 462.434 282.661 459.654 289.082 459.654H294.135C295.503 459.654 295.636 459.279 295.636 458.242C295.636 457.359 295.57 456.763 295.128 455.881C294.4 454.513 292.591 453.806 289.788 453.806C286.081 453.806 284.294 455.484 284.294 457.933C284.294 458.087 284.205 458.154 284.051 458.154H280.167C280.013 458.154 279.947 458.087 279.947 457.933C279.947 456.234 280.432 454.755 281.381 453.52C283.279 451.048 286.28 449.967 289.788 449.967C296.143 449.967 299.917 452.88 299.917 458.33V467.201C299.917 468.789 300.248 469.451 301.858 469.451H302.719C302.873 469.451 302.94 469.518 302.94 469.672V473.07C302.94 473.225 302.873 473.291 302.719 473.291H300.888C298.703 473.291 297.291 472.607 296.629 471.217C296.54 471.018 296.298 471.018 296.209 471.129C294.908 472.475 291.995 473.732 288.221 473.732C282.33 473.732 279.13 470.93 279.13 466.517ZM283.433 466.517C283.433 468.392 284.845 469.893 288.177 469.893C290.803 469.893 292.855 469.098 293.959 467.907C295.062 466.715 295.57 465.369 295.636 463.891V463.251C295.636 463.096 295.547 463.03 295.393 463.03H289.082C287.228 463.118 285.794 463.449 285 463.891C283.874 464.509 283.433 465.435 283.433 466.517ZM307.375 441.692C307.375 441.538 307.441 441.471 307.596 441.471H311.435C311.59 441.471 311.656 441.538 311.656 441.692V452.46C311.656 452.659 311.921 452.791 312.119 452.549C312.98 451.578 315.804 449.967 318.563 449.967C325.094 449.967 329.331 454.777 329.331 461.861C329.331 468.944 325.116 473.732 318.563 473.732C316.422 473.732 313.377 472.43 312.119 471.173C312.009 471.018 311.744 471.018 311.656 471.261L311.215 473.07C311.17 473.225 311.082 473.291 310.972 473.291H307.596C307.441 473.291 307.375 473.225 307.375 473.07V441.692ZM311.656 461.861C311.656 466.649 314.083 469.893 318.121 469.893C322.38 469.893 325.028 466.649 325.028 461.861C325.028 457.072 322.38 453.806 318.121 453.806C314.083 453.806 311.656 457.072 311.656 461.861ZM333.921 441.692C333.921 441.538 334.009 441.471 334.163 441.471H338.003C338.157 441.471 338.224 441.538 338.224 441.692V473.07C338.224 473.225 338.157 473.291 338.003 473.291H334.163C334.009 473.291 333.921 473.225 333.921 473.07V441.692ZM343.034 461.861C343.034 454.645 347.138 449.967 354.023 449.967C360.93 449.967 365.034 454.689 365.034 461.861C365.034 462.368 364.99 462.81 364.902 463.163C364.858 463.317 364.791 463.383 364.681 463.383H347.823C347.668 463.383 347.602 463.472 347.602 463.626C347.602 467.09 350.139 469.893 354.023 469.893C356.737 469.893 358.657 468.834 359.76 466.737C359.827 466.583 359.937 466.517 360.069 466.517H364.085C364.24 466.517 364.372 466.583 364.328 466.737C363.181 471.129 359.165 473.732 354.023 473.732C347.315 473.732 343.034 468.988 343.034 461.861ZM347.602 459.786C347.602 459.941 347.668 460.007 347.823 460.007H360.113C360.268 460.007 360.334 459.941 360.334 459.786C360.334 458.44 359.849 457.05 358.878 455.837C357.907 454.623 356.164 453.806 354.023 453.806C351.971 453.806 350.139 454.755 349.146 456.013C348.153 457.271 347.602 458.661 347.602 459.786ZM369.028 461.861C369.028 454.645 373.199 449.967 380.194 449.967C385.865 449.967 389.704 452.902 390.94 457.933C390.962 457.955 390.962 457.977 390.962 457.999C390.962 458.109 390.874 458.154 390.719 458.154H386.703C386.571 458.154 386.483 458.087 386.438 457.933C385.446 455.263 383.261 453.806 380.194 453.806C375.957 453.806 373.331 457.072 373.331 461.861C373.331 466.649 375.957 469.893 380.194 469.893C383.261 469.893 385.446 468.458 386.438 465.788C386.483 465.634 386.571 465.568 386.703 465.568H390.719C390.874 465.568 390.962 465.612 390.962 465.722C390.962 465.744 390.962 465.766 390.94 465.788C389.682 470.842 385.865 473.732 380.194 473.732C373.199 473.732 369.028 469.032 369.028 461.861ZM394.493 461.861C394.493 454.645 398.707 449.967 405.702 449.967C412.653 449.967 416.912 454.711 416.912 461.861C416.912 469.01 412.653 473.732 405.702 473.732C398.707 473.732 394.493 469.01 394.493 461.861ZM398.796 461.861C398.796 466.627 401.466 469.893 405.702 469.893C409.961 469.893 412.609 466.649 412.609 461.861C412.609 457.072 409.961 453.806 405.702 453.806C401.466 453.806 398.796 457.094 398.796 461.861ZM421.303 441.692C421.303 441.538 421.369 441.471 421.524 441.471H426.268C426.423 441.471 426.511 441.538 426.511 441.692V446.436C426.511 446.591 426.423 446.679 426.268 446.679H421.524C421.369 446.679 421.303 446.591 421.303 446.436V441.692ZM421.767 473.07V450.651C421.767 450.497 421.833 450.43 421.987 450.43H425.827C425.981 450.43 426.047 450.497 426.047 450.651V473.07C426.047 473.225 425.981 473.291 425.827 473.291H421.987C421.833 473.291 421.767 473.225 421.767 473.07ZM432.072 450.651C432.072 450.497 432.138 450.43 432.292 450.43H435.69C435.801 450.43 435.867 450.497 435.911 450.651L436.352 452.681C436.463 452.924 436.75 452.88 436.86 452.725C437.985 451.203 440.015 449.967 442.774 449.967C444.892 449.967 446.702 450.452 448.224 451.423C451.247 453.387 452.637 456.653 452.637 460.647V473.07C452.637 473.225 452.549 473.291 452.395 473.291H448.555C448.401 473.291 448.334 473.225 448.334 473.07V460.647C448.334 458.816 447.915 457.271 447.033 455.947C446.128 454.623 444.473 453.806 442.332 453.806C441.119 453.806 440.038 454.137 439.111 454.777C437.257 456.101 436.352 458.242 436.352 460.647V473.07C436.352 473.225 436.286 473.291 436.132 473.291H432.292C432.138 473.291 432.072 473.225 432.072 473.07V450.651Z" fill="white"/>
<path opacity="0.2" d="M25 403L935 403" stroke="white"/>
</svg>
